<svg preserveAspectRatio="none" overflow="visible" style="display: block;" width="11.8404" height="12.9892" viewBox="0 0 11.8404 12.9892" fill="none" xmlns="http://www.w3.org/2000/svg">
<g id="Group">
<path id="Vector" d="M2.4827 4.20139C2.4827 3.28971 2.84486 2.41537 3.48952 1.77071C4.13418 1.12605 5.00852 0.763889 5.9202 0.763889C6.83188 0.763889 7.70622 1.12605 8.35088 1.77071C8.99553 2.41537 9.3577 3.28971 9.3577 4.20139C9.3577 8.21181 11.0764 9.35764 11.0764 9.35764H0.763948C0.763948 9.35764 2.4827 8.21181 2.4827 4.20139Z" stroke="white" stroke-width="1.52778" stroke-linecap="round" stroke-linejoin="round"/>
<path id="Vector_2" d="M4.94624 11.6493C5.04214 11.8237 5.18311 11.9692 5.35444 12.0705C5.52576 12.1718 5.72116 12.2253 5.9202 12.2253C6.11924 12.2253 6.31463 12.1718 6.48596 12.0705C6.65729 11.9692 6.79826 11.8237 6.89416 11.6493" stroke="white" stroke-width="1.52778" stroke-linecap="round" stroke-linejoin="round"/>
</g>
</svg>
